<svg width="64" height="64" viewBox="0 0 64 64" xmlns="http://www.w3.org/2000/svg" role="img" aria-label="Snek">
  <path d="M18 18 C8 24, 6 38, 16 44 C26 50, 30 36, 40 34 C48 32.5, 54 38, 50 46" fill="none" stroke="#2a1c10" stroke-width="13" stroke-linecap="round" />
  <path d="M18 18 C8 24, 6 38, 16 44 C26 50, 30 36, 40 34 C48 32.5, 54 38, 50 46" fill="none" stroke="#f3dfb4" stroke-width="10.5" stroke-linecap="round" />
  <ellipse cx="22" cy="31" rx="4.2" ry="3" fill="#f97316" stroke="#7c4a20" stroke-width="1.1" transform="rotate(-25 22 31)" />
  <ellipse cx="34" cy="43" rx="4" ry="3" fill="#f97316" stroke="#7c4a20" stroke-width="1.1" transform="rotate(10 34 43)" />
  <ellipse cx="46" cy="37" rx="3.6" ry="2.8" fill="#f97316" stroke="#7c4a20" stroke-width="1.1" transform="rotate(-10 46 37)" />
  <circle cx="16" cy="16" r="11" fill="#f3dfb4" stroke="#2a1c10" stroke-width="2" />
  <path d="M8 12 C10 6, 20 6, 23 11 C21 13, 10 13, 8 12 Z" fill="#e8973a" stroke="#7c4a20" stroke-width="1" />
  <circle cx="11.5" cy="14" r="4.3" fill="#ffffff" stroke="#2a1c10" stroke-width="1.2" />
  <circle cx="20" cy="13" r="4.3" fill="#ffffff" stroke="#2a1c10" stroke-width="1.2" />
  <circle cx="12.2" cy="14.6" r="2.3" fill="#1a1a1a" />
  <circle cx="20.7" cy="13.6" r="2.3" fill="#1a1a1a" />
  <circle cx="11.4" cy="13.6" r="0.7" fill="#ffffff" />
  <circle cx="19.9" cy="12.6" r="0.7" fill="#ffffff" />
  <path d="M12.5 20 Q16 22.5 19.5 20" fill="none" stroke="#2a1c10" stroke-width="1.3" stroke-linecap="round" />
</svg>
